<svg id="svg" version="1.1" xmlns="http://www.w3.org/2000/svg" xmlns:xlink="http://www.w3.org/1999/xlink" width="400" height="400" viewBox="0, 0, 400,400"><g id="svgg"><path id="path0" d="M198.066 1.406 C 197.285 2.063,196.628 3.207,196.170 4.706 C 195.784 5.968,195.339 7.180,195.179 7.400 C 195.020 7.620,194.324 9.510,193.631 11.600 C 192.939 13.690,192.198 15.713,191.986 16.095 C 191.774 16.477,191.600 17.028,191.600 17.319 C 191.600 17.611,191.240 18.595,190.800 19.506 C 190.360 20.416,190.000 21.429,190.000 21.757 C 190.000 22.085,189.820 22.464,189.600 22.600 C 189.380 22.736,189.200 23.251,189.200 23.744 C 189.200 24.237,189.042 24.811,188.850 25.020 C 188.657 25.229,188.095 26.660,187.601 28.200 C 187.108 29.740,186.457 31.540,186.156 32.200 C 185.855 32.860,184.896 35.470,184.026 38.000 C 181.105 46.487,178.782 52.990,178.237 54.200 C 177.940 54.860,177.201 56.930,176.595 58.800 C 175.989 60.670,175.361 62.380,175.200 62.600 C 175.039 62.820,174.321 64.777,173.604 66.950 C 172.887 69.122,172.051 71.372,171.747 71.950 C 171.442 72.527,171.081 73.679,170.944 74.509 C 170.807 75.339,170.539 76.114,170.347 76.232 C 170.156 76.351,170.000 76.799,170.000 77.229 C 170.000 77.659,169.807 78.323,169.571 78.705 C 169.334 79.087,168.095 82.460,166.817 86.200 C 165.538 89.940,163.411 96.060,162.089 99.800 C 160.767 103.540,158.574 109.840,157.215 113.800 C 155.856 117.760,154.397 121.763,153.972 122.696 C 153.547 123.628,153.200 124.653,153.200 124.972 C 153.200 125.291,153.020 125.664,152.800 125.800 C 152.580 125.936,152.400 126.476,152.400 127.000 C 152.400 127.524,152.220 128.064,152.000 128.200 C 151.780 128.336,151.600 128.876,151.600 129.400 C 151.600 129.924,151.420 130.464,151.200 130.600 C 150.980 130.736,150.800 131.227,150.800 131.692 C 150.800 132.157,150.554 132.821,150.253 133.169 C 149.953 133.516,148.973 135.960,148.076 138.600 C 146.477 143.309,144.723 148.235,141.528 157.000 C 140.645 159.420,139.468 162.750,138.911 164.400 C 138.355 166.050,137.485 168.480,136.979 169.800 C 136.473 171.120,135.409 174.180,134.614 176.600 C 133.820 179.020,132.995 181.360,132.782 181.800 C 132.569 182.240,131.773 184.400,131.013 186.600 C 130.254 188.800,128.995 192.372,128.216 194.537 C 126.379 199.644,126.500 202.270,128.788 207.000 C 129.000 207.440,129.898 209.960,130.783 212.600 C 131.667 215.240,132.573 217.713,132.796 218.095 C 133.018 218.477,133.200 219.064,133.200 219.400 C 133.200 219.736,133.377 220.323,133.592 220.705 C 133.808 221.087,134.608 223.308,135.370 225.640 C 136.133 227.973,137.021 230.493,137.345 231.240 C 137.669 231.988,138.382 233.950,138.929 235.600 C 139.476 237.250,140.676 240.670,141.596 243.200 C 143.966 249.719,146.058 255.561,147.690 260.213 C 148.464 262.419,149.480 265.018,149.948 265.988 C 150.417 266.957,150.800 268.066,150.800 268.452 C 150.800 268.837,150.980 269.264,151.200 269.400 C 151.420 269.536,151.600 270.076,151.600 270.600 C 151.600 271.124,151.780 271.664,152.000 271.800 C 152.220 271.936,152.400 272.476,152.400 273.000 C 152.400 273.524,152.580 274.064,152.800 274.200 C 153.020 274.336,153.200 274.851,153.200 275.344 C 153.200 275.837,153.344 276.411,153.519 276.620 C 153.695 276.829,154.169 277.990,154.573 279.200 C 154.976 280.410,155.542 281.940,155.829 282.600 C 156.116 283.260,157.245 286.410,158.339 289.600 C 159.432 292.790,161.446 298.550,162.814 302.400 C 164.182 306.250,166.194 312.010,167.285 315.200 C 168.375 318.390,169.432 321.171,169.634 321.380 C 169.835 321.589,170.000 322.163,170.000 322.656 C 170.000 323.149,170.156 323.649,170.346 323.767 C 170.536 323.884,170.794 324.606,170.918 325.370 C 171.042 326.134,171.420 327.353,171.759 328.080 C 172.387 329.424,174.131 334.212,176.613 341.400 C 177.373 343.600,178.174 345.760,178.392 346.200 C 178.815 347.050,180.291 351.146,183.797 361.200 C 187.169 370.870,188.365 374.143,188.799 374.895 C 189.019 375.277,189.200 375.941,189.200 376.371 C 189.200 376.801,189.380 377.264,189.600 377.400 C 189.820 377.536,190.000 377.915,190.000 378.243 C 190.000 378.571,190.360 379.584,190.800 380.494 C 191.240 381.405,191.600 382.446,191.600 382.808 C 191.600 383.170,191.716 383.583,191.858 383.724 C 191.999 383.866,193.052 386.751,194.197 390.134 C 197.176 398.943,197.686 399.769,200.233 399.918 C 202.665 400.061,202.355 400.579,205.434 391.219 C 206.632 387.579,207.790 384.287,208.006 383.905 C 208.223 383.523,208.400 382.859,208.400 382.429 C 208.400 381.999,208.580 381.536,208.800 381.400 C 209.020 381.264,209.200 380.809,209.200 380.389 C 209.200 379.968,209.560 378.983,210.000 378.200 C 210.440 377.417,210.800 376.509,210.800 376.182 C 210.800 375.856,210.985 375.277,211.211 374.895 C 211.437 374.513,212.241 372.400,212.997 370.200 C 213.753 368.000,215.374 363.410,216.599 360.000 C 217.825 356.590,219.364 352.270,220.019 350.400 C 220.674 348.530,221.456 346.460,221.757 345.800 C 222.057 345.140,222.799 343.070,223.405 341.200 C 224.011 339.330,224.639 337.620,224.800 337.400 C 224.961 337.180,225.681 335.200,226.400 333.000 C 227.119 330.800,227.844 328.820,228.012 328.600 C 228.180 328.380,228.536 327.390,228.803 326.400 C 229.070 325.410,229.424 324.240,229.590 323.800 C 229.757 323.360,230.293 321.830,230.782 320.400 C 231.272 318.970,232.355 315.910,233.189 313.600 C 234.023 311.290,235.999 305.620,237.579 301.000 C 239.160 296.380,240.698 292.060,240.997 291.400 C 241.296 290.740,242.015 288.760,242.594 287.000 C 243.173 285.240,243.883 283.260,244.170 282.600 C 244.458 281.940,245.024 280.410,245.427 279.200 C 245.831 277.990,246.305 276.829,246.481 276.620 C 246.656 276.411,246.800 275.837,246.800 275.344 C 246.800 274.851,246.980 274.336,247.200 274.200 C 247.420 274.064,247.600 273.524,247.600 273.000 C 247.600 272.476,247.780 271.936,248.000 271.800 C 248.220 271.664,248.400 271.124,248.400 270.600 C 248.400 270.076,248.560 269.548,248.756 269.427 C 248.951 269.306,249.235 268.711,249.387 268.104 C 249.538 267.497,249.916 266.460,250.226 265.800 C 250.537 265.140,251.413 262.800,252.174 260.600 C 253.580 256.533,255.489 251.200,258.438 243.100 C 259.339 240.625,260.524 237.250,261.071 235.600 C 261.618 233.950,262.331 231.988,262.655 231.240 C 262.979 230.493,263.867 227.973,264.630 225.640 C 265.392 223.308,266.192 221.087,266.408 220.705 C 266.623 220.323,266.800 219.736,266.800 219.400 C 266.800 219.064,266.982 218.477,267.204 218.095 C 267.648 217.332,270.537 209.265,271.392 206.400 C 271.687 205.410,272.215 203.931,272.564 203.113 C 272.914 202.295,273.200 201.125,273.200 200.513 C 273.200 199.117,268.090 183.624,267.348 182.769 C 267.047 182.421,266.800 181.855,266.800 181.511 C 266.800 180.930,264.757 174.705,262.892 169.600 C 262.449 168.390,261.814 166.590,261.479 165.600 C 261.145 164.610,260.150 161.820,259.269 159.400 C 255.405 148.783,254.263 145.604,253.217 142.561 C 251.847 138.574,250.104 134.035,249.587 133.105 C 249.374 132.723,249.200 132.084,249.200 131.685 C 249.200 131.286,249.051 130.789,248.870 130.580 C 248.688 130.371,248.309 129.390,248.027 128.400 C 247.746 127.410,247.174 125.908,246.758 125.062 C 246.341 124.216,246.000 123.269,246.000 122.957 C 246.000 122.645,245.823 122.077,245.608 121.695 C 245.392 121.313,244.568 119.020,243.777 116.600 C 242.987 114.180,242.094 111.660,241.795 111.000 C 241.495 110.340,240.319 107.100,239.181 103.800 C 238.043 100.500,235.887 94.290,234.389 90.000 C 232.892 85.710,231.270 81.030,230.786 79.600 C 230.302 78.170,229.747 76.687,229.553 76.305 C 229.359 75.923,229.200 75.284,229.200 74.885 C 229.200 74.486,229.050 73.989,228.867 73.780 C 228.684 73.571,227.757 71.060,226.807 68.200 C 225.857 65.340,224.950 62.820,224.793 62.600 C 224.635 62.380,224.190 61.210,223.805 60.000 C 223.420 58.790,222.858 57.260,222.556 56.600 C 222.255 55.940,221.295 53.330,220.423 50.800 C 219.551 48.270,218.010 43.950,217.000 41.200 C 215.989 38.450,214.364 33.860,213.388 31.000 C 212.412 28.140,211.250 25.108,210.807 24.262 C 210.363 23.416,210.000 22.392,210.000 21.986 C 210.000 21.580,209.820 21.136,209.600 21.000 C 209.380 20.864,209.200 20.324,209.200 19.800 C 209.200 19.276,209.020 18.736,208.800 18.600 C 208.580 18.464,208.400 18.001,208.400 17.571 C 208.400 17.141,208.229 16.477,208.019 16.095 C 207.809 15.713,207.247 14.230,206.768 12.800 C 206.290 11.370,205.773 10.020,205.618 9.800 C 205.464 9.580,204.834 7.822,204.220 5.894 C 202.578 0.746,200.581 -0.711,198.066 1.406 M201.607 3.225 C 201.910 4.339,202.303 5.340,202.479 5.449 C 202.656 5.558,202.800 5.999,202.800 6.429 C 202.800 6.859,202.980 7.568,203.200 8.005 C 203.420 8.442,203.780 9.158,204.000 9.595 C 204.220 10.032,204.400 10.741,204.400 11.171 C 204.400 11.601,204.544 12.042,204.721 12.151 C 204.897 12.260,205.293 13.272,205.600 14.400 C 205.907 15.528,206.303 16.540,206.479 16.649 C 206.656 16.758,206.800 17.276,206.800 17.800 C 206.800 18.324,206.944 18.842,207.121 18.951 C 207.297 19.060,207.693 20.072,208.000 21.200 C 208.307 22.328,208.703 23.340,208.879 23.449 C 209.056 23.558,209.200 23.999,209.200 24.429 C 209.200 24.859,209.380 25.568,209.600 26.005 C 209.820 26.442,210.180 27.158,210.400 27.595 C 210.620 28.032,210.800 28.716,210.800 29.115 C 210.800 29.514,210.949 30.011,211.130 30.220 C 211.312 30.429,211.705 31.410,212.002 32.400 C 212.300 33.390,212.659 34.380,212.800 34.600 C 212.941 34.820,213.300 35.810,213.598 36.800 C 213.895 37.790,214.288 38.771,214.470 38.980 C 214.651 39.189,214.800 39.686,214.800 40.085 C 214.800 40.484,214.971 41.123,215.181 41.505 C 215.391 41.887,215.943 43.370,216.407 44.800 C 216.872 46.230,217.403 47.760,217.586 48.200 C 217.769 48.640,218.136 49.630,218.400 50.400 C 218.664 51.170,219.031 52.160,219.214 52.600 C 219.397 53.040,219.931 54.570,220.400 56.000 C 220.869 57.430,221.408 58.960,221.598 59.400 C 221.976 60.277,223.705 65.155,224.645 68.000 C 224.973 68.990,225.402 70.160,225.600 70.600 C 225.798 71.040,226.227 72.210,226.555 73.200 C 227.494 76.042,229.224 80.923,229.602 81.800 C 229.792 82.240,230.177 83.320,230.457 84.200 C 230.737 85.080,231.077 85.980,231.211 86.200 C 231.346 86.420,231.700 87.410,231.998 88.400 C 232.295 89.390,232.688 90.371,232.870 90.580 C 233.051 90.789,233.200 91.286,233.200 91.685 C 233.200 92.084,233.408 92.813,233.662 93.305 C 234.649 95.214,234.800 95.613,234.800 96.315 C 234.800 96.714,234.949 97.211,235.130 97.420 C 235.312 97.629,235.705 98.610,236.002 99.600 C 236.300 100.590,236.659 101.580,236.800 101.800 C 236.941 102.020,237.300 103.010,237.598 104.000 C 237.895 104.990,238.288 105.971,238.470 106.180 C 238.651 106.389,238.800 106.963,238.800 107.456 C 238.800 107.949,238.944 108.442,239.121 108.551 C 239.297 108.660,239.693 109.672,240.000 110.800 C 240.307 111.928,240.703 112.940,240.879 113.049 C 241.056 113.158,241.200 113.651,241.200 114.144 C 241.200 114.637,241.349 115.211,241.530 115.420 C 241.712 115.629,242.105 116.610,242.402 117.600 C 242.700 118.590,243.059 119.580,243.200 119.800 C 243.341 120.020,243.700 121.010,243.998 122.000 C 244.295 122.990,244.688 123.971,244.870 124.180 C 245.051 124.389,245.200 124.938,245.200 125.400 C 245.200 125.862,245.349 126.411,245.530 126.620 C 245.712 126.829,246.105 127.810,246.402 128.800 C 246.700 129.790,247.059 130.780,247.200 131.000 C 247.341 131.220,247.700 132.210,247.998 133.200 C 248.295 134.190,248.688 135.171,248.870 135.380 C 249.051 135.589,249.200 136.138,249.200 136.600 C 249.200 137.062,249.343 137.611,249.518 137.820 C 249.693 138.029,250.065 138.920,250.345 139.800 C 250.624 140.680,251.009 141.760,251.200 142.200 C 251.391 142.640,251.931 144.170,252.400 145.600 C 252.869 147.030,253.409 148.560,253.600 149.000 C 253.791 149.440,254.176 150.520,254.455 151.400 C 254.735 152.280,255.107 153.171,255.282 153.380 C 255.457 153.589,255.600 154.138,255.600 154.600 C 255.600 155.062,255.743 155.611,255.918 155.820 C 256.093 156.029,256.465 156.920,256.745 157.800 C 257.024 158.680,257.409 159.760,257.600 160.200 C 257.791 160.640,258.331 162.170,258.800 163.600 C 259.663 166.230,260.204 167.631,260.847 168.895 C 261.041 169.277,261.200 169.864,261.200 170.200 C 261.200 170.536,261.371 171.123,261.581 171.505 C 261.791 171.887,262.343 173.370,262.807 174.800 C 263.272 176.230,263.803 177.760,263.986 178.200 C 264.169 178.640,264.536 179.630,264.800 180.400 C 265.064 181.170,265.424 182.160,265.600 182.600 C 265.776 183.040,266.136 184.030,266.400 184.800 C 266.664 185.570,267.031 186.560,267.214 187.000 C 267.397 187.440,267.931 188.970,268.400 190.400 C 269.263 193.030,269.804 194.431,270.447 195.695 C 270.641 196.077,270.800 196.741,270.800 197.171 C 270.800 197.601,270.980 198.064,271.200 198.200 C 271.675 198.494,271.738 201.275,271.282 201.820 C 271.107 202.029,270.735 202.920,270.455 203.800 C 270.176 204.680,269.791 205.760,269.600 206.200 C 269.409 206.640,268.869 208.170,268.400 209.600 C 267.931 211.030,267.397 212.560,267.214 213.000 C 267.031 213.440,266.664 214.430,266.400 215.200 C 266.136 215.970,265.776 216.960,265.600 217.400 C 265.424 217.840,265.064 218.830,264.800 219.600 C 264.536 220.370,264.166 221.360,263.980 221.800 C 263.793 222.240,263.373 223.410,263.045 224.400 C 262.105 227.245,260.376 232.123,259.998 233.000 C 259.808 233.440,259.269 234.970,258.800 236.400 C 258.331 237.830,257.797 239.360,257.614 239.800 C 257.431 240.240,257.064 241.230,256.800 242.000 C 256.536 242.770,256.169 243.760,255.986 244.200 C 255.803 244.640,255.272 246.170,254.807 247.600 C 254.343 249.030,253.791 250.513,253.581 250.895 C 253.371 251.277,253.200 251.916,253.200 252.315 C 253.200 252.714,253.051 253.211,252.870 253.420 C 252.688 253.629,252.295 254.610,251.998 255.600 C 251.700 256.590,251.346 257.580,251.211 257.800 C 251.077 258.020,250.737 258.920,250.457 259.800 C 250.177 260.680,249.788 261.760,249.594 262.200 C 249.399 262.640,248.969 263.810,248.637 264.800 C 247.008 269.657,245.697 273.236,245.462 273.472 C 245.318 273.616,245.200 274.117,245.200 274.587 C 245.200 275.056,245.051 275.611,244.870 275.820 C 244.688 276.029,244.295 277.010,243.998 278.000 C 243.700 278.990,243.341 279.980,243.200 280.200 C 243.059 280.420,242.700 281.410,242.402 282.400 C 242.105 283.390,241.712 284.371,241.530 284.580 C 241.349 284.789,241.200 285.363,241.200 285.856 C 241.200 286.349,241.056 286.842,240.879 286.951 C 240.703 287.060,240.307 288.072,240.000 289.200 C 239.693 290.328,239.297 291.340,239.121 291.449 C 238.944 291.558,238.800 292.051,238.800 292.544 C 238.800 293.037,238.651 293.611,238.470 293.820 C 238.288 294.029,237.895 295.010,237.598 296.000 C 237.300 296.990,236.941 297.980,236.800 298.200 C 236.659 298.420,236.299 299.410,236.000 300.400 C 235.701 301.390,235.346 302.380,235.211 302.600 C 235.077 302.820,234.737 303.720,234.457 304.600 C 234.177 305.480,233.791 306.560,233.600 307.000 C 233.409 307.440,232.869 308.970,232.400 310.400 C 231.931 311.830,231.397 313.360,231.214 313.800 C 231.031 314.240,230.664 315.230,230.400 316.000 C 230.136 316.770,229.766 317.760,229.580 318.200 C 229.393 318.640,228.973 319.810,228.645 320.800 C 227.671 323.747,225.969 328.542,225.592 329.400 C 225.398 329.840,224.971 331.010,224.641 332.000 C 224.312 332.990,223.303 335.870,222.400 338.400 C 221.497 340.930,220.488 343.810,220.159 344.800 C 219.829 345.790,219.407 346.960,219.220 347.400 C 219.034 347.840,218.664 348.830,218.400 349.600 C 218.136 350.370,217.769 351.360,217.586 351.800 C 217.403 352.240,216.872 353.770,216.407 355.200 C 215.943 356.630,215.391 358.113,215.181 358.495 C 214.971 358.877,214.800 359.464,214.800 359.800 C 214.800 360.136,214.620 360.768,214.400 361.205 C 214.180 361.642,213.820 362.358,213.600 362.795 C 213.380 363.232,213.200 363.941,213.200 364.371 C 213.200 364.801,213.056 365.242,212.879 365.351 C 212.703 365.460,212.307 366.472,212.000 367.600 C 211.693 368.728,211.297 369.740,211.121 369.849 C 210.944 369.958,210.800 370.399,210.800 370.829 C 210.800 371.259,210.620 371.968,210.400 372.405 C 210.180 372.842,209.820 373.558,209.600 373.995 C 209.380 374.432,209.200 375.141,209.200 375.571 C 209.200 376.001,209.056 376.442,208.879 376.551 C 208.703 376.660,208.307 377.672,208.000 378.800 C 207.693 379.928,207.297 380.940,207.121 381.049 C 206.944 381.158,206.800 381.599,206.800 382.029 C 206.800 382.459,206.620 383.168,206.400 383.605 C 206.180 384.042,205.820 384.758,205.600 385.195 C 205.380 385.632,205.200 386.316,205.200 386.715 C 205.200 387.114,205.051 387.611,204.870 387.820 C 204.688 388.029,204.295 389.010,203.998 390.000 C 203.700 390.990,203.341 391.980,203.200 392.200 C 203.059 392.420,202.697 393.410,202.394 394.400 C 200.644 400.130,199.663 400.876,198.574 397.300 C 198.190 396.035,197.723 394.829,197.537 394.620 C 197.352 394.411,197.200 393.862,197.200 393.400 C 197.200 392.938,197.051 392.389,196.870 392.180 C 196.688 391.971,196.295 390.990,195.998 390.000 C 195.700 389.010,195.341 388.020,195.200 387.800 C 195.059 387.580,194.700 386.590,194.402 385.600 C 194.105 384.610,193.712 383.629,193.530 383.420 C 193.349 383.211,193.200 382.662,193.200 382.200 C 193.200 381.738,193.051 381.189,192.870 380.980 C 192.688 380.771,192.295 379.790,191.998 378.800 C 191.700 377.810,191.341 376.820,191.200 376.600 C 191.059 376.380,190.700 375.390,190.402 374.400 C 190.105 373.410,189.712 372.429,189.530 372.220 C 189.349 372.011,189.200 371.437,189.200 370.944 C 189.200 370.451,189.056 369.958,188.879 369.849 C 188.703 369.740,188.307 368.728,188.000 367.600 C 187.693 366.472,187.297 365.460,187.121 365.351 C 186.944 365.242,186.800 364.801,186.800 364.371 C 186.800 363.941,186.592 363.187,186.338 362.695 C 185.344 360.774,185.200 360.384,185.200 359.629 C 185.200 359.199,185.056 358.758,184.879 358.649 C 184.703 358.540,184.307 357.528,184.000 356.400 C 183.693 355.272,183.297 354.260,183.121 354.151 C 182.944 354.042,182.800 353.549,182.800 353.056 C 182.800 352.563,182.657 351.989,182.482 351.780 C 182.307 351.571,181.935 350.680,181.655 349.800 C 181.376 348.920,180.992 347.840,180.802 347.400 C 180.417 346.508,178.732 341.770,177.601 338.400 C 177.195 337.190,176.297 334.670,175.605 332.800 C 174.913 330.930,174.080 328.590,173.753 327.600 C 173.427 326.610,172.996 325.440,172.797 325.000 C 172.597 324.560,171.991 322.847,171.451 321.194 C 170.493 318.261,169.467 315.411,168.789 313.800 C 168.604 313.360,168.224 312.280,167.945 311.400 C 167.665 310.520,167.293 309.629,167.118 309.420 C 166.943 309.211,166.800 308.662,166.800 308.200 C 166.800 307.738,166.651 307.189,166.470 306.980 C 166.288 306.771,165.895 305.790,165.598 304.800 C 165.300 303.810,164.941 302.820,164.800 302.600 C 164.659 302.380,164.300 301.390,164.002 300.400 C 163.705 299.410,163.312 298.429,163.130 298.220 C 162.949 298.011,162.800 297.462,162.800 297.000 C 162.800 296.538,162.651 295.989,162.470 295.780 C 162.288 295.571,161.895 294.590,161.598 293.600 C 161.300 292.610,160.941 291.620,160.800 291.400 C 160.659 291.180,160.300 290.190,160.002 289.200 C 159.705 288.210,159.312 287.229,159.130 287.020 C 158.949 286.811,158.800 286.262,158.800 285.800 C 158.800 285.338,158.651 284.789,158.470 284.580 C 158.288 284.371,157.895 283.390,157.598 282.400 C 157.300 281.410,156.941 280.420,156.800 280.200 C 156.659 279.980,156.300 278.990,156.002 278.000 C 155.705 277.010,155.312 276.029,155.130 275.820 C 154.949 275.611,154.800 275.062,154.800 274.600 C 154.800 274.138,154.657 273.589,154.482 273.380 C 154.307 273.171,153.935 272.280,153.655 271.400 C 153.376 270.520,152.991 269.440,152.800 269.000 C 152.609 268.560,152.069 267.030,151.600 265.600 C 151.131 264.170,150.588 262.640,150.394 262.200 C 150.199 261.760,149.771 260.590,149.442 259.600 C 148.288 256.125,147.328 253.595,147.065 253.332 C 146.919 253.186,146.800 252.677,146.800 252.200 C 146.800 251.723,146.682 251.216,146.538 251.072 C 146.303 250.836,144.992 247.257,143.363 242.400 C 143.031 241.410,142.601 240.240,142.406 239.800 C 142.212 239.360,141.669 237.830,141.200 236.400 C 140.731 234.970,140.197 233.440,140.014 233.000 C 139.831 232.560,139.464 231.570,139.200 230.800 C 138.936 230.030,138.569 229.040,138.386 228.600 C 138.203 228.160,137.669 226.630,137.200 225.200 C 136.731 223.770,136.197 222.240,136.014 221.800 C 135.831 221.360,135.464 220.370,135.200 219.600 C 134.936 218.830,134.576 217.840,134.400 217.400 C 134.224 216.960,133.864 215.970,133.600 215.200 C 133.336 214.430,132.969 213.440,132.786 213.000 C 132.603 212.560,132.069 211.030,131.600 209.600 C 131.131 208.170,130.591 206.640,130.400 206.200 C 130.209 205.760,129.824 204.680,129.545 203.800 C 129.265 202.920,128.893 202.029,128.718 201.820 C 128.306 201.327,128.306 198.673,128.718 198.180 C 128.893 197.971,129.265 197.080,129.545 196.200 C 129.824 195.320,130.209 194.240,130.400 193.800 C 130.591 193.360,131.131 191.830,131.600 190.400 C 132.069 188.970,132.603 187.440,132.786 187.000 C 132.969 186.560,133.336 185.570,133.600 184.800 C 133.864 184.030,134.234 183.040,134.420 182.600 C 134.607 182.160,135.031 180.990,135.363 180.000 C 136.992 175.143,138.303 171.564,138.538 171.328 C 138.682 171.184,138.800 170.677,138.800 170.200 C 138.800 169.723,138.919 169.214,139.065 169.068 C 139.328 168.805,140.288 166.275,141.442 162.800 C 141.771 161.810,142.202 160.640,142.400 160.200 C 142.598 159.760,143.031 158.590,143.363 157.600 C 144.992 152.743,146.303 149.164,146.538 148.928 C 146.682 148.784,146.800 148.283,146.800 147.813 C 146.800 147.344,146.949 146.789,147.130 146.580 C 147.312 146.371,147.705 145.390,148.002 144.400 C 148.300 143.410,148.659 142.420,148.800 142.200 C 148.941 141.980,149.300 140.990,149.598 140.000 C 149.895 139.010,150.288 138.029,150.470 137.820 C 150.651 137.611,150.800 137.062,150.800 136.600 C 150.800 136.138,150.949 135.589,151.130 135.380 C 151.312 135.171,151.705 134.190,152.002 133.200 C 152.300 132.210,152.659 131.220,152.800 131.000 C 152.941 130.780,153.301 129.790,153.600 128.800 C 153.899 127.810,154.258 126.820,154.398 126.600 C 154.537 126.380,155.077 124.850,155.598 123.200 C 156.118 121.550,156.692 120.029,156.872 119.820 C 157.052 119.611,157.200 119.114,157.200 118.715 C 157.200 118.316,157.408 117.587,157.662 117.095 C 158.656 115.174,158.800 114.784,158.800 114.029 C 158.800 113.599,158.944 113.158,159.121 113.049 C 159.297 112.940,159.693 111.928,160.000 110.800 C 160.307 109.672,160.703 108.660,160.879 108.551 C 161.056 108.442,161.200 107.949,161.200 107.456 C 161.200 106.963,161.349 106.389,161.530 106.180 C 161.712 105.971,162.105 104.990,162.402 104.000 C 162.700 103.010,163.059 102.020,163.200 101.800 C 163.341 101.580,163.701 100.590,164.000 99.600 C 164.299 98.610,164.659 97.620,164.800 97.400 C 164.941 97.180,165.300 96.190,165.598 95.200 C 165.895 94.210,166.288 93.229,166.470 93.020 C 166.651 92.811,166.800 92.262,166.800 91.800 C 166.800 91.338,166.943 90.789,167.118 90.580 C 167.293 90.371,167.665 89.480,167.945 88.600 C 168.224 87.720,168.612 86.640,168.806 86.200 C 169.001 85.760,169.427 84.590,169.755 83.600 C 170.729 80.653,172.431 75.858,172.808 75.000 C 173.002 74.560,173.427 73.390,173.753 72.400 C 174.080 71.410,174.913 69.070,175.605 67.200 C 176.297 65.330,177.195 62.810,177.601 61.600 C 178.636 58.516,180.394 53.553,180.788 52.600 C 180.970 52.160,181.336 51.170,181.600 50.400 C 181.864 49.630,182.231 48.640,182.414 48.200 C 182.597 47.760,183.128 46.230,183.593 44.800 C 184.057 43.370,184.609 41.887,184.819 41.505 C 185.029 41.123,185.200 40.536,185.200 40.200 C 185.200 39.864,185.380 39.232,185.600 38.795 C 185.820 38.358,186.180 37.642,186.400 37.205 C 186.620 36.768,186.800 36.059,186.800 35.629 C 186.800 35.199,186.944 34.758,187.121 34.649 C 187.297 34.540,187.693 33.528,188.000 32.400 C 188.307 31.272,188.703 30.260,188.879 30.151 C 189.056 30.042,189.200 29.549,189.200 29.056 C 189.200 28.563,189.349 27.989,189.530 27.780 C 189.712 27.571,190.105 26.590,190.402 25.600 C 190.700 24.610,191.059 23.620,191.200 23.400 C 191.341 23.180,191.700 22.190,191.998 21.200 C 192.295 20.210,192.688 19.229,192.870 19.020 C 193.051 18.811,193.200 18.262,193.200 17.800 C 193.200 17.338,193.349 16.789,193.530 16.580 C 193.712 16.371,194.105 15.390,194.402 14.400 C 194.700 13.410,195.059 12.420,195.200 12.200 C 195.341 11.980,195.700 10.990,195.998 10.000 C 196.295 9.010,196.688 8.029,196.870 7.820 C 197.051 7.611,197.200 7.037,197.200 6.544 C 197.200 6.051,197.380 5.536,197.600 5.400 C 197.820 5.264,198.000 4.724,198.000 4.200 C 198.000 3.676,198.180 3.136,198.400 3.000 C 198.620 2.864,198.800 2.403,198.800 1.976 C 198.800 0.050,201.010 1.034,201.607 3.225 M193.400 161.876 C 191.860 162.188,190.103 162.544,189.495 162.668 C 188.887 162.791,188.292 163.051,188.171 163.246 C 188.051 163.441,187.558 163.603,187.076 163.606 C 183.641 163.629,173.237 170.945,169.263 176.133 C 167.082 178.981,163.600 185.326,163.600 186.454 C 163.600 186.696,163.254 187.999,162.832 189.347 C 160.241 197.621,160.893 208.156,164.440 215.338 C 164.858 216.184,165.200 217.017,165.200 217.189 C 165.200 221.887,181.690 236.400,187.027 236.400 C 187.536 236.400,188.051 236.559,188.171 236.754 C 188.292 236.949,188.887 237.206,189.495 237.325 C 190.103 237.445,191.950 237.825,193.600 238.171 C 197.429 238.973,202.571 238.973,206.400 238.171 C 208.050 237.825,209.897 237.445,210.505 237.325 C 211.113 237.206,211.708 236.949,211.829 236.754 C 211.949 236.559,212.464 236.400,212.973 236.400 C 215.380 236.400,224.333 230.865,227.637 227.335 C 241.204 212.836,242.482 191.464,230.700 176.085 C 226.766 170.950,216.257 163.600,212.849 163.600 C 212.408 163.600,211.955 163.451,211.842 163.268 C 211.644 162.948,209.725 162.462,205.280 161.608 C 202.417 161.057,196.815 161.183,193.400 161.876 M203.776 163.237 C 216.007 165.441,223.216 169.666,230.447 178.868 C 232.791 181.852,235.993 190.219,236.620 195.000 C 238.669 210.618,230.489 226.116,216.478 233.161 C 214.685 234.062,212.922 234.800,212.561 234.800 C 212.200 234.800,210.801 235.146,209.453 235.568 C 198.533 238.988,185.371 236.126,176.000 228.296 C 173.454 226.169,173.145 225.853,171.800 224.006 C 171.140 223.099,170.128 221.782,169.552 221.079 C 166.380 217.208,162.800 206.031,162.800 200.000 C 162.800 194.040,166.344 182.949,169.553 178.868 C 174.166 173.000,180.041 168.274,185.200 166.280 C 190.240 164.332,192.670 163.600,194.227 163.560 C 195.092 163.538,196.250 163.376,196.800 163.200 C 198.275 162.728,201.030 162.742,203.776 163.237 M187.313 350.900 C 187.421 351.175,187.997 352.660,188.592 354.200 C 189.187 355.740,189.820 357.360,189.999 357.800 C 190.305 358.554,191.248 361.054,193.960 368.300 C 194.598 370.005,195.841 373.290,196.721 375.600 C 197.601 377.910,198.589 380.520,198.916 381.400 C 199.243 382.280,199.731 383.000,200.000 383.000 C 200.269 383.000,200.757 382.280,201.084 381.400 C 201.411 380.520,202.399 377.910,203.279 375.600 C 204.159 373.290,205.402 370.005,206.040 368.300 C 208.940 360.551,209.779 358.344,211.237 354.631 C 212.094 352.448,212.703 350.569,212.590 350.456 C 212.476 350.343,209.719 352.894,206.462 356.125 C 203.205 359.356,200.297 362.000,200.000 362.000 C 199.703 362.000,196.829 359.390,193.613 356.200 C 188.155 350.785,186.823 349.665,187.313 350.900 " stroke="none" fill="#e0e0e6" fill-rule="evenodd"></path><path id="path1" d="M199.358 2.300 C 199.239 2.685,198.975 3.313,198.771 3.695 C 198.567 4.077,198.400 4.741,198.400 5.171 C 198.400 5.601,198.220 6.064,198.000 6.200 C 197.780 6.336,197.600 6.851,197.600 7.344 C 197.600 7.837,197.451 8.411,197.270 8.620 C 197.088 8.829,196.695 9.810,196.398 10.800 C 196.100 11.790,195.741 12.780,195.600 13.000 C 195.459 13.220,195.100 14.210,194.802 15.200 C 194.505 16.190,194.112 17.171,193.930 17.380 C 193.749 17.589,193.600 18.163,193.600 18.656 C 193.600 19.149,193.456 19.642,193.279 19.751 C 193.103 19.860,192.707 20.872,192.400 22.000 C 192.093 23.128,191.697 24.140,191.521 24.249 C 191.344 24.358,191.200 24.799,191.200 25.229 C 191.200 25.659,191.020 26.368,190.800 26.805 C 190.580 27.242,190.220 27.958,190.000 28.395 C 189.780 28.832,189.600 29.541,189.600 29.971 C 189.600 30.401,189.456 30.842,189.279 30.951 C 189.103 31.060,188.707 32.072,188.400 33.200 C 188.093 34.328,187.697 35.340,187.521 35.449 C 187.344 35.558,187.200 35.999,187.200 36.429 C 187.200 36.859,187.020 37.568,186.800 38.005 C 186.580 38.442,186.220 39.158,186.000 39.595 C 185.780 40.032,185.600 40.741,185.600 41.171 C 185.600 41.601,185.456 42.042,185.279 42.151 C 185.103 42.260,184.707 43.272,184.400 44.400 C 184.093 45.528,183.697 46.540,183.521 46.649 C 183.344 46.758,183.200 47.251,183.200 47.744 C 183.200 48.237,183.051 48.811,182.870 49.020 C 182.688 49.229,182.295 50.210,181.998 51.200 C 181.700 52.190,181.341 53.180,181.200 53.400 C 181.059 53.620,180.699 54.610,180.400 55.600 C 180.101 56.590,179.741 57.580,179.600 57.800 C 179.459 58.020,179.100 59.010,178.802 60.000 C 178.505 60.990,178.112 61.971,177.930 62.180 C 177.749 62.389,177.600 62.938,177.600 63.400 C 177.600 63.862,177.457 64.411,177.282 64.620 C 177.107 64.829,176.735 65.720,176.455 66.600 C 176.176 67.480,175.791 68.560,175.600 69.000 C 175.409 69.440,174.869 70.970,174.400 72.400 C 173.931 73.830,173.391 75.360,173.200 75.800 C 173.009 76.240,172.624 77.320,172.345 78.200 C 172.065 79.080,171.693 79.971,171.518 80.180 C 171.343 80.389,171.200 80.938,171.200 81.400 C 171.200 81.862,171.051 82.411,170.870 82.620 C 170.688 82.829,170.295 83.810,169.998 84.800 C 169.700 85.790,169.341 86.780,169.200 87.000 C 169.059 87.220,168.700 88.210,168.402 89.200 C 168.105 90.190,167.712 91.171,167.530 91.380 C 167.349 91.589,167.200 92.138,167.200 92.600 C 167.200 93.062,167.051 93.611,166.870 93.820 C 166.688 94.029,166.295 95.010,165.998 96.000 C 165.700 96.990,165.341 97.980,165.200 98.200 C 165.059 98.420,164.700 99.410,164.402 100.400 C 164.105 101.390,163.712 102.371,163.530 102.580 C 163.349 102.789,163.200 103.338,163.200 103.800 C 163.200 104.262,163.051 104.811,162.870 105.020 C 162.688 105.229,162.295 106.210,161.998 107.200 C 161.700 108.190,161.341 109.180,161.200 109.400 C 161.059 109.620,160.700 110.610,160.402 111.600 C 160.105 112.590,159.712 113.571,159.530 113.780 C 159.349 113.989,159.200 114.486,159.200 114.885 C 159.200 115.284,159.020 115.968,158.800 116.405 C 158.580 116.842,158.220 117.558,158.000 117.995 C 157.780 118.432,157.600 119.141,157.600 119.571 C 157.600 120.001,157.456 120.442,157.279 120.551 C 157.103 120.660,156.707 121.672,156.400 122.800 C 156.093 123.928,155.697 124.940,155.521 125.049 C 155.344 125.158,155.200 125.651,155.200 126.144 C 155.200 126.637,155.051 127.211,154.870 127.420 C 154.688 127.629,154.295 128.610,153.998 129.600 C 153.700 130.590,153.341 131.580,153.200 131.800 C 153.059 132.020,152.700 133.010,152.402 134.000 C 152.105 134.990,151.712 135.971,151.530 136.180 C 151.349 136.389,151.200 136.938,151.200 137.400 C 151.200 137.862,151.051 138.411,150.870 138.620 C 150.688 138.829,150.295 139.810,149.998 140.800 C 149.700 141.790,149.341 142.780,149.200 143.000 C 149.059 143.220,148.700 144.210,148.402 145.200 C 148.105 146.190,147.712 147.171,147.530 147.380 C 147.349 147.589,147.200 148.138,147.200 148.600 C 147.200 149.062,147.057 149.611,146.882 149.820 C 146.707 150.029,146.335 150.920,146.055 151.800 C 145.776 152.680,145.391 153.760,145.200 154.200 C 145.009 154.640,144.469 156.170,144.000 157.600 C 143.531 159.030,142.997 160.560,142.814 161.000 C 142.631 161.440,142.264 162.430,142.000 163.200 C 141.736 163.970,141.369 164.960,141.186 165.400 C 141.003 165.840,140.469 167.370,140.000 168.800 C 139.531 170.230,138.997 171.760,138.814 172.200 C 138.631 172.640,138.264 173.630,138.000 174.400 C 137.736 175.170,137.369 176.160,137.186 176.600 C 137.003 177.040,136.469 178.570,136.000 180.000 C 135.531 181.430,134.991 182.960,134.800 183.400 C 134.609 183.840,134.224 184.920,133.945 185.800 C 133.665 186.680,133.293 187.571,133.118 187.780 C 132.943 187.989,132.800 188.538,132.800 189.000 C 132.800 189.462,132.651 190.011,132.470 190.220 C 132.288 190.429,131.895 191.410,131.598 192.400 C 131.300 193.390,130.946 194.380,130.811 194.600 C 130.677 194.820,130.337 195.720,130.057 196.600 C 129.777 197.480,129.349 198.605,129.106 199.100 C 128.784 199.756,128.784 200.244,129.106 200.900 C 129.349 201.395,129.777 202.520,130.057 203.400 C 130.337 204.280,130.677 205.180,130.811 205.400 C 130.946 205.620,131.300 206.610,131.598 207.600 C 131.895 208.590,132.288 209.571,132.470 209.780 C 132.651 209.989,132.800 210.538,132.800 211.000 C 132.800 211.462,132.949 212.011,133.130 212.220 C 133.312 212.429,133.705 213.410,134.002 214.400 C 134.300 215.390,134.659 216.380,134.800 216.600 C 134.941 216.820,135.300 217.810,135.598 218.800 C 135.895 219.790,136.288 220.771,136.470 220.980 C 136.651 221.189,136.800 221.738,136.800 222.200 C 136.800 222.662,136.949 223.211,137.130 223.420 C 137.312 223.629,137.705 224.610,138.002 225.600 C 138.300 226.590,138.659 227.580,138.800 227.800 C 138.941 228.020,139.300 229.010,139.598 230.000 C 139.895 230.990,140.288 231.971,140.470 232.180 C 140.651 232.389,140.800 232.938,140.800 233.400 C 140.800 233.862,140.943 234.411,141.118 234.620 C 141.293 234.829,141.665 235.720,141.945 236.600 C 142.224 237.480,142.609 238.560,142.800 239.000 C 142.991 239.440,143.531 240.970,144.000 242.400 C 144.469 243.830,145.003 245.360,145.186 245.800 C 145.369 246.240,145.736 247.230,146.000 248.000 C 146.264 248.770,146.631 249.760,146.814 250.200 C 146.997 250.640,147.531 252.170,148.000 253.600 C 148.469 255.030,149.003 256.560,149.186 257.000 C 149.369 257.440,149.736 258.430,150.000 259.200 C 150.264 259.970,150.631 260.960,150.814 261.400 C 150.997 261.840,151.531 263.370,152.000 264.800 C 152.469 266.230,153.009 267.760,153.200 268.200 C 153.391 268.640,153.776 269.720,154.055 270.600 C 154.335 271.480,154.707 272.371,154.882 272.580 C 155.057 272.789,155.200 273.286,155.200 273.685 C 155.200 274.084,155.380 274.768,155.600 275.205 C 155.820 275.642,156.180 276.358,156.400 276.795 C 156.620 277.232,156.800 277.941,156.800 278.371 C 156.800 278.801,156.944 279.242,157.121 279.351 C 157.297 279.460,157.693 280.472,158.000 281.600 C 158.307 282.728,158.703 283.740,158.879 283.849 C 159.056 283.958,159.200 284.451,159.200 284.944 C 159.200 285.437,159.349 286.011,159.530 286.220 C 159.712 286.429,160.105 287.410,160.402 288.400 C 160.700 289.390,161.059 290.380,161.200 290.600 C 161.341 290.820,161.700 291.810,161.998 292.800 C 162.295 293.790,162.688 294.771,162.870 294.980 C 163.051 295.189,163.200 295.738,163.200 296.200 C 163.200 296.662,163.349 297.211,163.530 297.420 C 163.712 297.629,164.105 298.610,164.402 299.600 C 164.700 300.590,165.054 301.580,165.189 301.800 C 165.323 302.020,165.663 302.920,165.943 303.800 C 166.223 304.680,166.609 305.760,166.800 306.200 C 166.991 306.640,167.531 308.170,168.000 309.600 C 168.469 311.030,169.009 312.560,169.200 313.000 C 169.391 313.440,169.776 314.520,170.055 315.400 C 170.335 316.280,170.707 317.171,170.882 317.380 C 171.057 317.589,171.200 318.138,171.200 318.600 C 171.200 319.062,171.343 319.611,171.518 319.820 C 171.693 320.029,172.065 320.920,172.345 321.800 C 172.624 322.680,173.009 323.760,173.200 324.200 C 173.391 324.640,173.931 326.170,174.400 327.600 C 174.869 329.030,175.409 330.560,175.600 331.000 C 175.791 331.440,176.176 332.520,176.455 333.400 C 176.735 334.280,177.107 335.171,177.282 335.380 C 177.457 335.589,177.600 336.138,177.600 336.600 C 177.600 337.062,177.749 337.611,177.930 337.820 C 178.112 338.029,178.505 339.010,178.802 340.000 C 179.100 340.990,179.459 341.980,179.600 342.200 C 179.741 342.420,180.100 343.410,180.398 344.400 C 180.695 345.390,181.088 346.371,181.270 346.580 C 181.451 346.789,181.600 347.286,181.600 347.685 C 181.600 348.084,181.780 348.768,182.000 349.205 C 182.220 349.642,182.580 350.358,182.800 350.795 C 183.020 351.232,183.200 351.941,183.200 352.371 C 183.200 352.801,183.344 353.242,183.521 353.351 C 183.697 353.460,184.093 354.472,184.400 355.600 C 184.707 356.728,185.103 357.740,185.279 357.849 C 185.456 357.958,185.600 358.399,185.600 358.829 C 185.600 359.259,185.780 359.968,186.000 360.405 C 186.220 360.842,186.580 361.558,186.800 361.995 C 187.020 362.432,187.200 363.141,187.200 363.571 C 187.200 364.001,187.344 364.442,187.521 364.551 C 187.697 364.660,188.093 365.672,188.400 366.800 C 188.707 367.928,189.103 368.940,189.279 369.049 C 189.456 369.158,189.600 369.651,189.600 370.144 C 189.600 370.637,189.749 371.211,189.930 371.420 C 190.112 371.629,190.505 372.610,190.802 373.600 C 191.100 374.590,191.459 375.580,191.600 375.800 C 191.741 376.020,192.100 377.010,192.398 378.000 C 192.695 378.990,193.088 379.971,193.270 380.180 C 193.451 380.389,193.600 380.938,193.600 381.400 C 193.600 381.862,193.749 382.411,193.930 382.620 C 194.112 382.829,194.505 383.810,194.802 384.800 C 195.100 385.790,195.459 386.780,195.600 387.000 C 195.741 387.220,196.100 388.210,196.398 389.200 C 196.695 390.190,197.088 391.171,197.270 391.380 C 197.451 391.589,197.600 392.144,197.600 392.613 C 197.600 393.083,197.733 393.600,197.896 393.763 C 198.059 393.926,198.481 394.981,198.834 396.109 C 199.549 398.391,200.200 398.915,200.591 397.522 C 200.869 396.535,201.473 395.034,202.047 393.905 C 202.241 393.523,202.400 392.859,202.400 392.429 C 202.400 391.999,202.544 391.558,202.721 391.449 C 202.897 391.340,203.293 390.328,203.600 389.200 C 203.907 388.072,204.303 387.060,204.479 386.951 C 204.656 386.842,204.800 386.401,204.800 385.971 C 204.800 385.541,204.980 384.832,205.200 384.395 C 205.420 383.958,205.780 383.242,206.000 382.805 C 206.220 382.368,206.400 381.659,206.400 381.229 C 206.400 380.799,206.544 380.358,206.721 380.249 C 206.897 380.140,207.293 379.128,207.600 378.000 C 207.907 376.872,208.303 375.860,208.479 375.751 C 208.656 375.642,208.800 375.201,208.800 374.771 C 208.800 374.341,208.980 373.632,209.200 373.195 C 209.420 372.758,209.780 372.042,210.000 371.605 C 210.220 371.168,210.400 370.459,210.400 370.029 C 210.400 369.599,210.544 369.158,210.721 369.049 C 210.897 368.940,211.293 367.928,211.600 366.800 C 211.907 365.672,212.303 364.660,212.479 364.551 C 212.656 364.442,212.800 364.001,212.800 363.571 C 212.800 363.141,212.980 362.432,213.200 361.995 C 213.420 361.558,213.780 360.842,214.000 360.405 C 214.220 359.968,214.400 359.259,214.400 358.829 C 214.400 358.399,214.544 357.958,214.721 357.849 C 214.897 357.740,215.293 356.728,215.600 355.600 C 215.907 354.472,216.303 353.460,216.479 353.351 C 216.656 353.242,216.800 352.749,216.800 352.256 C 216.800 351.763,216.949 351.189,217.130 350.980 C 217.312 350.771,217.705 349.790,218.002 348.800 C 218.300 347.810,218.659 346.820,218.800 346.600 C 218.941 346.380,219.301 345.390,219.600 344.400 C 219.899 343.410,220.259 342.420,220.400 342.200 C 220.541 341.980,220.900 340.990,221.198 340.000 C 221.495 339.010,221.888 338.029,222.070 337.820 C 222.251 337.611,222.400 337.037,222.400 336.544 C 222.400 336.051,222.544 335.558,222.721 335.449 C 222.897 335.340,223.293 334.328,223.600 333.200 C 223.907 332.072,224.303 331.060,224.479 330.951 C 224.656 330.842,224.800 330.349,224.800 329.856 C 224.800 329.363,224.949 328.789,225.130 328.580 C 225.312 328.371,225.705 327.390,226.002 326.400 C 226.300 325.410,226.659 324.420,226.800 324.200 C 226.941 323.980,227.300 322.990,227.598 322.000 C 227.895 321.010,228.288 320.029,228.470 319.820 C 228.651 319.611,228.800 319.062,228.800 318.600 C 228.800 318.138,228.943 317.589,229.118 317.380 C 229.293 317.171,229.665 316.280,229.945 315.400 C 230.224 314.520,230.609 313.440,230.800 313.000 C 230.991 312.560,231.531 311.030,232.000 309.600 C 232.469 308.170,233.009 306.640,233.200 306.200 C 233.391 305.760,233.777 304.680,234.057 303.800 C 234.337 302.920,234.677 302.020,234.811 301.800 C 234.946 301.580,235.300 300.590,235.598 299.600 C 235.895 298.610,236.288 297.629,236.470 297.420 C 236.651 297.211,236.800 296.714,236.800 296.315 C 236.800 295.916,236.980 295.232,237.200 294.795 C 237.420 294.358,237.780 293.642,238.000 293.205 C 238.220 292.768,238.400 292.059,238.400 291.629 C 238.400 291.199,238.544 290.758,238.721 290.649 C 238.897 290.540,239.293 289.528,239.600 288.400 C 239.907 287.272,240.303 286.260,240.479 286.151 C 240.656 286.042,240.800 285.549,240.800 285.056 C 240.800 284.563,240.949 283.989,241.130 283.780 C 241.312 283.571,241.705 282.590,242.002 281.600 C 242.300 280.610,242.659 279.620,242.800 279.400 C 242.941 279.180,243.300 278.190,243.598 277.200 C 243.895 276.210,244.288 275.229,244.470 275.020 C 244.651 274.811,244.800 274.262,244.800 273.800 C 244.800 273.338,244.943 272.789,245.118 272.580 C 245.293 272.371,245.665 271.480,245.945 270.600 C 246.224 269.720,246.609 268.640,246.800 268.200 C 246.991 267.760,247.531 266.230,248.000 264.800 C 248.469 263.370,249.003 261.840,249.186 261.400 C 249.369 260.960,249.736 259.970,250.000 259.200 C 250.264 258.430,250.631 257.440,250.814 257.000 C 250.997 256.560,251.531 255.030,252.000 253.600 C 252.469 252.170,253.009 250.640,253.200 250.200 C 253.391 249.760,253.776 248.680,254.055 247.800 C 254.335 246.920,254.707 246.029,254.882 245.820 C 255.057 245.611,255.200 245.062,255.200 244.600 C 255.200 244.138,255.349 243.589,255.530 243.380 C 255.712 243.171,256.105 242.190,256.402 241.200 C 256.700 240.210,257.059 239.220,257.200 239.000 C 257.341 238.780,257.700 237.790,257.998 236.800 C 258.295 235.810,258.688 234.829,258.870 234.620 C 259.051 234.411,259.200 233.862,259.200 233.400 C 259.200 232.938,259.349 232.389,259.530 232.180 C 259.712 231.971,260.105 230.990,260.402 230.000 C 260.700 229.010,261.059 228.020,261.200 227.800 C 261.341 227.580,261.700 226.590,261.998 225.600 C 262.295 224.610,262.688 223.629,262.870 223.420 C 263.051 223.211,263.200 222.662,263.200 222.200 C 263.200 221.738,263.349 221.189,263.530 220.980 C 263.712 220.771,264.105 219.790,264.402 218.800 C 264.700 217.810,265.059 216.820,265.200 216.600 C 265.341 216.380,265.700 215.390,265.998 214.400 C 266.295 213.410,266.688 212.429,266.870 212.220 C 267.051 212.011,267.200 211.462,267.200 211.000 C 267.200 210.538,267.349 209.989,267.530 209.780 C 267.712 209.571,268.105 208.590,268.402 207.600 C 268.700 206.610,269.054 205.620,269.189 205.400 C 269.323 205.180,269.663 204.280,269.943 203.400 C 270.223 202.520,270.657 201.384,270.907 200.875 C 271.251 200.177,271.244 199.762,270.881 199.181 C 270.616 198.757,270.400 198.136,270.400 197.800 C 270.400 197.464,270.241 196.877,270.047 196.495 C 269.450 195.322,268.876 193.874,268.345 192.200 C 268.065 191.320,267.693 190.429,267.518 190.220 C 267.343 190.011,267.200 189.462,267.200 189.000 C 267.200 188.538,267.051 187.989,266.870 187.780 C 266.688 187.571,266.295 186.590,265.998 185.600 C 265.700 184.610,265.341 183.620,265.200 183.400 C 265.059 183.180,264.700 182.190,264.402 181.200 C 264.105 180.210,263.712 179.229,263.530 179.020 C 263.349 178.811,263.200 178.262,263.200 177.800 C 263.200 177.338,263.051 176.789,262.870 176.580 C 262.688 176.371,262.295 175.390,261.998 174.400 C 261.700 173.410,261.341 172.420,261.200 172.200 C 261.059 171.980,260.700 170.990,260.402 170.000 C 260.105 169.010,259.712 168.029,259.530 167.820 C 259.349 167.611,259.200 167.037,259.200 166.544 C 259.200 166.051,259.020 165.536,258.800 165.400 C 258.580 165.264,258.400 164.801,258.400 164.371 C 258.400 163.941,258.241 163.277,258.047 162.895 C 257.450 161.722,256.876 160.274,256.345 158.600 C 256.065 157.720,255.693 156.829,255.518 156.620 C 255.343 156.411,255.200 155.862,255.200 155.400 C 255.200 154.938,255.057 154.389,254.882 154.180 C 254.707 153.971,254.335 153.080,254.055 152.200 C 253.776 151.320,253.391 150.240,253.200 149.800 C 253.009 149.360,252.469 147.830,252.000 146.400 C 251.531 144.970,250.991 143.440,250.800 143.000 C 250.609 142.560,250.224 141.480,249.945 140.600 C 249.665 139.720,249.293 138.829,249.118 138.620 C 248.943 138.411,248.800 137.837,248.800 137.344 C 248.800 136.851,248.656 136.358,248.479 136.249 C 248.303 136.140,247.907 135.128,247.600 134.000 C 247.293 132.872,246.897 131.860,246.721 131.751 C 246.544 131.642,246.400 131.201,246.400 130.771 C 246.400 130.341,246.241 129.677,246.047 129.295 C 245.404 128.031,244.863 126.630,244.000 124.000 C 243.531 122.570,242.991 121.040,242.800 120.600 C 242.609 120.160,242.224 119.080,241.945 118.200 C 241.665 117.320,241.293 116.429,241.118 116.220 C 240.943 116.011,240.800 115.437,240.800 114.944 C 240.800 114.451,240.656 113.958,240.479 113.849 C 240.303 113.740,239.907 112.728,239.600 111.600 C 239.293 110.472,238.897 109.460,238.721 109.351 C 238.544 109.242,238.400 108.801,238.400 108.371 C 238.400 107.941,238.220 107.232,238.000 106.795 C 237.780 106.358,237.420 105.642,237.200 105.205 C 236.980 104.768,236.800 104.059,236.800 103.629 C 236.800 103.199,236.656 102.758,236.479 102.649 C 236.303 102.540,235.907 101.528,235.600 100.400 C 235.293 99.272,234.897 98.260,234.721 98.151 C 234.544 98.042,234.400 97.601,234.400 97.171 C 234.400 96.741,234.192 95.987,233.938 95.495 C 232.951 93.586,232.800 93.187,232.800 92.485 C 232.800 92.086,232.651 91.589,232.470 91.380 C 232.288 91.171,231.895 90.190,231.598 89.200 C 231.300 88.210,230.941 87.220,230.800 87.000 C 230.659 86.780,230.300 85.790,230.002 84.800 C 229.705 83.810,229.312 82.829,229.130 82.620 C 228.949 82.411,228.800 81.862,228.800 81.400 C 228.800 80.938,228.651 80.389,228.470 80.180 C 228.288 79.971,227.895 78.990,227.598 78.000 C 227.300 77.010,226.941 76.020,226.800 75.800 C 226.659 75.580,226.300 74.590,226.002 73.600 C 225.705 72.610,225.312 71.629,225.130 71.420 C 224.949 71.211,224.800 70.637,224.800 70.144 C 224.800 69.651,224.656 69.158,224.479 69.049 C 224.303 68.940,223.907 67.928,223.600 66.800 C 223.293 65.672,222.897 64.660,222.721 64.551 C 222.544 64.442,222.400 63.949,222.400 63.456 C 222.400 62.963,222.251 62.389,222.070 62.180 C 221.888 61.971,221.495 60.990,221.198 60.000 C 220.900 59.010,220.541 58.020,220.400 57.800 C 220.259 57.580,219.899 56.590,219.600 55.600 C 219.301 54.610,218.941 53.620,218.800 53.400 C 218.659 53.180,218.300 52.190,218.002 51.200 C 217.705 50.210,217.312 49.229,217.130 49.020 C 216.949 48.811,216.800 48.262,216.800 47.800 C 216.800 47.338,216.657 46.789,216.482 46.580 C 216.307 46.371,215.935 45.480,215.655 44.600 C 215.376 43.720,214.991 42.640,214.800 42.200 C 214.609 41.760,214.069 40.230,213.600 38.800 C 213.131 37.370,212.591 35.840,212.400 35.400 C 212.209 34.960,211.824 33.880,211.545 33.000 C 211.265 32.120,210.893 31.229,210.718 31.020 C 210.543 30.811,210.400 30.314,210.400 29.915 C 210.400 29.516,210.220 28.832,210.000 28.395 C 209.780 27.958,209.420 27.242,209.200 26.805 C 208.980 26.368,208.800 25.659,208.800 25.229 C 208.800 24.799,208.656 24.358,208.479 24.249 C 208.303 24.140,207.907 23.128,207.600 22.000 C 207.293 20.872,206.897 19.860,206.721 19.751 C 206.544 19.642,206.400 19.201,206.400 18.771 C 206.400 18.341,206.192 17.587,205.938 17.095 C 204.944 15.174,204.800 14.784,204.800 14.029 C 204.800 13.599,204.656 13.158,204.479 13.049 C 204.303 12.940,203.907 11.928,203.600 10.800 C 203.293 9.672,202.897 8.660,202.721 8.551 C 202.544 8.442,202.400 7.924,202.400 7.400 C 202.400 6.876,202.220 6.336,202.000 6.200 C 201.780 6.064,201.600 5.601,201.600 5.171 C 201.600 4.741,201.433 4.077,201.229 3.695 C 201.025 3.313,200.761 2.685,200.642 2.300 C 200.523 1.915,200.234 1.600,200.000 1.600 C 199.766 1.600,199.477 1.915,199.358 2.300 M208.303 161.411 C 209.239 161.562,210.105 161.845,210.226 162.042 C 210.348 162.239,210.876 162.400,211.400 162.400 C 211.924 162.400,212.464 162.580,212.600 162.800 C 212.736 163.020,213.242 163.206,213.724 163.213 C 215.110 163.232,220.808 166.246,223.750 168.515 C 226.373 170.538,230.955 175.224,232.393 177.353 C 234.196 180.023,236.800 185.152,236.800 186.032 C 236.800 186.428,236.959 186.851,237.154 186.971 C 237.349 187.092,237.610 187.687,237.736 188.295 C 237.861 188.903,238.182 190.300,238.448 191.400 C 238.727 192.551,238.933 196.202,238.933 200.000 C 238.933 203.798,238.727 207.449,238.448 208.600 C 238.182 209.700,237.861 211.097,237.736 211.705 C 237.610 212.313,237.349 212.908,237.154 213.029 C 236.959 213.149,236.800 213.581,236.800 213.990 C 236.800 219.029,225.539 231.578,217.800 235.161 C 216.700 235.671,215.487 236.248,215.105 236.444 C 214.723 236.640,214.059 236.800,213.629 236.800 C 213.199 236.800,212.736 236.980,212.600 237.200 C 212.464 237.420,212.001 237.600,211.571 237.600 C 211.141 237.600,210.477 237.759,210.095 237.953 C 206.715 239.669,193.285 239.669,189.905 237.953 C 189.523 237.759,188.859 237.600,188.429 237.600 C 187.999 237.600,187.536 237.420,187.400 237.200 C 187.264 236.980,186.801 236.800,186.371 236.800 C 185.941 236.800,185.277 236.640,184.895 236.444 C 184.513 236.248,183.300 235.669,182.200 235.158 C 176.620 232.564,166.400 223.080,166.400 220.496 C 166.400 220.260,166.265 220.007,166.100 219.933 C 165.613 219.717,163.200 214.752,163.200 213.967 C 163.200 213.571,163.020 213.136,162.800 213.000 C 162.580 212.864,162.400 212.349,162.400 211.856 C 162.400 211.363,162.238 210.789,162.041 210.580 C 161.028 209.508,160.660 195.083,161.552 191.400 C 161.818 190.300,162.139 188.903,162.264 188.295 C 162.390 187.687,162.651 187.092,162.846 186.971 C 163.041 186.851,163.200 186.428,163.200 186.032 C 163.200 182.748,170.277 173.102,175.751 168.923 C 179.394 166.143,184.755 163.234,186.276 163.213 C 186.758 163.206,187.264 163.020,187.400 162.800 C 187.536 162.580,188.076 162.400,188.600 162.400 C 189.124 162.400,189.664 162.220,189.800 162.000 C 189.936 161.780,190.712 161.597,191.524 161.594 C 192.336 161.591,193.270 161.406,193.600 161.185 C 194.239 160.756,205.276 160.926,208.303 161.411 M193.200 355.000 C 196.605 358.410,199.660 361.200,199.991 361.200 C 200.321 361.200,203.421 358.374,206.881 354.919 C 213.727 348.083,214.310 347.804,212.720 352.123 C 205.355 372.141,200.527 384.386,200.000 384.386 C 199.580 384.386,198.090 380.879,195.033 372.693 C 192.631 366.262,189.706 358.523,188.533 355.496 C 185.226 346.965,185.182 346.969,193.200 355.000 " stroke="none" fill="#1c144c" fill-rule="evenodd"></path><path id="path2" d="M192.555 19.500 C 192.434 19.885,192.170 20.613,191.967 21.119 C 191.765 21.624,191.611 22.254,191.625 22.519 C 191.639 22.783,191.838 22.550,192.066 22.000 C 192.697 20.480,193.167 18.800,192.960 18.800 C 192.858 18.800,192.676 19.115,192.555 19.500 M170.491 81.300 C 169.810 83.184,169.904 83.694,170.626 82.030 C 170.953 81.277,171.166 80.499,171.101 80.302 C 171.035 80.105,170.760 80.554,170.491 81.300 M160.555 109.100 C 160.434 109.485,160.170 110.213,159.967 110.719 C 159.765 111.224,159.611 111.854,159.625 112.119 C 159.639 112.383,159.838 112.150,160.066 111.600 C 160.697 110.080,161.167 108.400,160.960 108.400 C 160.858 108.400,160.676 108.715,160.555 109.100 M198.500 161.091 C 199.325 161.178,200.675 161.178,201.500 161.091 C 202.325 161.005,201.650 160.934,200.000 160.934 C 198.350 160.934,197.675 161.005,198.500 161.091 M206.500 161.876 C 206.885 161.976,207.515 161.976,207.900 161.876 C 208.285 161.775,207.970 161.693,207.200 161.693 C 206.430 161.693,206.115 161.775,206.500 161.876 M183.424 164.613 C 182.425 165.368,182.795 165.363,184.254 164.602 C 184.884 164.274,185.130 164.010,184.800 164.015 C 184.470 164.021,183.851 164.290,183.424 164.613 M219.200 166.121 C 219.200 166.212,220.235 166.951,221.500 167.763 C 222.765 168.575,223.308 168.821,222.706 168.310 C 221.518 167.300,219.200 165.853,219.200 166.121 M177.400 168.235 L 176.200 169.266 177.500 168.406 C 178.215 167.933,178.800 167.468,178.800 167.373 C 178.800 167.073,178.631 167.178,177.400 168.235 M172.813 171.852 C 171.475 173.091,170.002 174.666,169.541 175.352 C 169.079 176.039,169.450 175.753,170.367 174.717 C 171.284 173.681,172.881 172.107,173.917 171.219 C 174.953 170.332,175.675 169.604,175.523 169.603 C 175.370 169.601,174.151 170.614,172.813 171.852 M224.600 169.862 C 227.211 172.419,229.996 174.760,228.400 173.056 C 227.410 172.000,226.060 170.760,225.400 170.303 C 224.740 169.845,224.380 169.647,224.600 169.862 M165.853 180.900 L 165.133 182.200 165.958 181.200 C 166.689 180.313,167.014 179.600,166.686 179.600 C 166.624 179.600,166.249 180.185,165.853 180.900 M233.215 179.800 C 233.217 180.020,233.586 180.650,234.036 181.200 C 234.579 181.864,234.715 181.931,234.440 181.400 C 233.766 180.095,233.212 179.372,233.215 179.800 M265.572 183.446 C 266.075 185.119,266.746 186.665,266.769 186.200 C 266.794 185.665,265.817 182.883,265.486 182.553 C 265.342 182.409,265.381 182.811,265.572 183.446 M163.246 186.467 C 163.221 186.834,163.096 187.464,162.970 187.867 C 162.752 188.562,162.763 188.563,163.197 187.887 C 163.448 187.496,163.573 186.866,163.473 186.487 C 163.311 185.868,163.288 185.866,163.246 186.467 M236.406 186.633 C 236.409 187.055,236.595 187.670,236.818 188.000 C 237.115 188.438,237.152 188.276,236.956 187.400 C 236.627 185.929,236.398 185.610,236.406 186.633 M161.693 192.800 C 161.693 193.570,161.775 193.885,161.876 193.500 C 161.976 193.115,161.976 192.485,161.876 192.100 C 161.775 191.715,161.693 192.030,161.693 192.800 M238.093 192.800 C 238.093 193.570,238.175 193.885,238.276 193.500 C 238.376 193.115,238.376 192.485,238.276 192.100 C 238.175 191.715,238.093 192.030,238.093 192.800 M130.155 194.300 C 130.034 194.685,129.770 195.413,129.567 195.919 C 129.365 196.424,129.211 197.054,129.225 197.319 C 129.239 197.583,129.438 197.350,129.666 196.800 C 130.297 195.280,130.767 193.600,130.560 193.600 C 130.458 193.600,130.276 193.915,130.155 194.300 M160.940 200.000 C 160.940 201.870,161.009 202.635,161.093 201.700 C 161.177 200.765,161.177 199.235,161.093 198.300 C 161.009 197.365,160.940 198.130,160.940 200.000 M238.940 200.000 C 238.940 201.870,239.009 202.635,239.093 201.700 C 239.177 200.765,239.177 199.235,239.093 198.300 C 239.009 197.365,238.940 198.130,238.940 200.000 M129.231 202.600 C 129.206 203.135,130.183 205.917,130.514 206.247 C 130.658 206.391,130.619 205.989,130.428 205.354 C 129.925 203.681,129.254 202.135,129.231 202.600 M238.101 207.400 C 238.105 208.280,238.187 208.593,238.283 208.095 C 238.379 207.598,238.375 206.878,238.275 206.495 C 238.175 206.113,238.096 206.520,238.101 207.400 M161.693 207.600 C 161.693 208.370,161.775 208.685,161.876 208.300 C 161.976 207.915,161.976 207.285,161.876 206.900 C 161.775 206.515,161.693 206.830,161.693 207.600 M170.297 225.400 C 170.977 226.280,172.308 227.720,173.256 228.600 C 174.489 229.744,174.308 229.460,172.620 227.600 C 169.367 224.017,168.858 223.535,170.297 225.400 M227.371 227.429 C 225.594 229.283,224.207 230.800,224.288 230.800 C 224.608 230.800,228.547 226.929,229.671 225.510 C 231.433 223.286,230.965 223.676,227.371 227.429 M137.231 225.000 C 137.206 225.535,138.183 228.317,138.514 228.647 C 138.658 228.791,138.619 228.389,138.428 227.754 C 137.925 226.081,137.254 224.535,137.231 225.000 M262.091 226.100 C 261.410 227.984,261.504 228.494,262.226 226.830 C 262.553 226.077,262.766 225.299,262.701 225.102 C 262.635 224.905,262.360 225.354,262.091 226.100 M176.600 231.327 C 177.480 232.120,178.349 232.777,178.531 232.785 C 178.713 232.793,178.353 232.391,177.731 231.891 C 175.613 230.187,174.995 229.879,176.600 231.327 M186.000 236.555 C 186.000 236.640,186.530 236.787,187.179 236.882 C 187.827 236.977,188.267 236.908,188.155 236.728 C 187.957 236.407,186.000 236.250,186.000 236.555 M198.311 239.093 C 199.251 239.178,200.691 239.177,201.511 239.091 C 202.330 239.005,201.560 238.936,199.800 238.937 C 198.040 238.939,197.370 239.009,198.311 239.093 M247.691 266.500 C 247.010 268.384,247.104 268.894,247.826 267.230 C 248.153 266.477,248.366 265.699,248.301 265.502 C 248.235 265.305,247.960 265.754,247.691 266.500 M155.631 276.600 C 155.606 277.135,156.583 279.917,156.914 280.247 C 157.058 280.391,157.019 279.989,156.828 279.354 C 156.325 277.681,155.654 276.135,155.631 276.600 M243.883 277.084 C 243.763 277.478,243.473 278.418,243.239 279.173 C 243.005 279.928,242.954 280.378,243.125 280.173 C 243.587 279.619,244.503 276.769,244.288 276.554 C 244.185 276.452,244.003 276.690,243.883 277.084 M239.883 288.284 C 239.763 288.678,239.473 289.618,239.239 290.373 C 239.005 291.128,238.954 291.578,239.125 291.373 C 239.587 290.819,240.503 287.969,240.288 287.754 C 240.185 287.652,240.003 287.890,239.883 288.284 M161.231 292.200 C 161.206 292.735,162.183 295.517,162.514 295.847 C 162.658 295.991,162.619 295.589,162.428 294.954 C 161.925 293.281,161.254 291.735,161.231 292.200 M234.283 303.884 C 234.163 304.278,233.873 305.218,233.639 305.973 C 233.405 306.728,233.354 307.178,233.525 306.973 C 233.987 306.419,234.903 303.569,234.688 303.354 C 234.585 303.252,234.403 303.490,234.283 303.884 M187.247 350.100 C 187.347 350.155,190.122 352.810,193.414 356.000 L 199.400 361.800 193.605 355.900 C 190.418 352.655,187.643 350.000,187.439 350.000 C 187.234 350.000,187.148 350.045,187.247 350.100 M206.395 355.900 L 200.600 361.800 206.586 356.000 C 209.878 352.810,212.653 350.155,212.753 350.100 C 212.852 350.045,212.766 350.000,212.561 350.000 C 212.357 350.000,209.582 352.655,206.395 355.900 M199.200 383.286 C 199.200 383.459,199.560 383.600,200.000 383.600 C 200.440 383.600,200.800 383.459,200.800 383.286 C 200.800 383.113,200.440 382.971,200.000 382.971 C 199.560 382.971,199.200 383.113,199.200 383.286 M201.291 396.500 C 200.610 398.384,200.704 398.894,201.426 397.230 C 201.753 396.477,201.966 395.699,201.901 395.502 C 201.835 395.305,201.560 395.754,201.291 396.500 M198.853 398.000 C 198.781 399.073,199.460 399.743,200.260 399.388 C 200.943 399.084,200.933 399.047,200.125 398.905 C 199.643 398.820,199.169 398.447,199.071 398.075 C 198.938 397.570,198.883 397.551,198.853 398.000 " stroke="none" fill="#8c8ca8" fill-rule="evenodd"></path><path id="path3" d="" stroke="none" fill="#8c84a4" fill-rule="evenodd"></path><path id="path4" d="M199.200 1.514 C 199.200 1.687,199.560 1.829,200.000 1.829 C 200.440 1.829,200.800 1.687,200.800 1.514 C 200.800 1.341,200.440 1.200,200.000 1.200 C 199.560 1.200,199.200 1.341,199.200 1.514 M234.428 97.076 C 234.413 97.558,234.580 98.064,234.800 98.200 C 235.273 98.492,235.273 98.101,234.800 97.000 C 234.469 96.229,234.455 96.231,234.428 97.076 M193.600 161.221 C 193.170 161.514,193.454 161.554,194.600 161.362 C 196.584 161.030,196.904 160.798,195.367 160.806 C 194.725 160.809,193.930 160.996,193.600 161.221 M204.600 161.200 C 205.260 161.368,206.160 161.514,206.600 161.525 L 207.400 161.544 206.600 161.200 C 206.160 161.011,205.260 160.865,204.600 160.875 L 203.400 160.895 204.600 161.200 M189.800 162.000 C 189.508 162.473,189.899 162.473,191.000 162.000 C 191.771 161.669,191.769 161.655,190.924 161.628 C 190.442 161.613,189.936 161.780,189.800 162.000 M176.200 168.578 C 174.660 169.762,172.500 171.686,171.400 172.854 L 169.400 174.979 172.000 172.577 C 173.430 171.256,175.590 169.475,176.800 168.618 C 179.534 166.683,179.870 166.396,179.380 166.413 C 179.171 166.421,177.740 167.395,176.200 168.578 M220.433 166.562 C 221.205 167.313,225.595 170.332,225.577 170.099 C 225.551 169.747,221.025 166.400,220.575 166.400 C 220.405 166.400,220.342 166.473,220.433 166.562 M139.400 169.200 C 139.250 169.673,139.217 170.150,139.327 170.260 C 139.437 170.370,139.650 170.073,139.800 169.600 C 139.950 169.127,139.983 168.650,139.873 168.540 C 139.763 168.430,139.550 168.727,139.400 169.200 M260.012 168.800 C 260.012 169.130,260.187 169.670,260.400 170.000 C 260.745 170.533,260.788 170.533,260.788 170.000 C 260.788 169.670,260.613 169.130,260.400 168.800 C 260.055 168.267,260.012 168.267,260.012 168.800 M228.000 172.600 C 229.195 173.810,230.263 174.800,230.373 174.800 C 230.483 174.800,229.595 173.810,228.400 172.600 C 227.205 171.390,226.137 170.400,226.027 170.400 C 225.917 170.400,226.805 171.390,228.000 172.600 M230.893 176.000 C 231.168 176.440,231.531 176.800,231.700 176.800 C 231.869 176.800,231.782 176.440,231.507 176.000 C 231.232 175.560,230.869 175.200,230.700 175.200 C 230.531 175.200,230.618 175.560,230.893 176.000 M166.214 179.435 C 165.841 180.004,165.627 180.561,165.739 180.672 C 165.850 180.783,166.229 180.318,166.581 179.637 C 167.359 178.133,167.144 178.015,166.214 179.435 M233.386 179.500 C 233.735 180.215,234.106 180.800,234.210 180.800 C 234.608 180.800,234.352 180.163,233.567 179.200 L 232.752 178.200 233.386 179.500 M161.073 193.353 C 160.923 193.745,160.818 194.636,160.840 195.333 C 160.879 196.567,160.890 196.559,161.249 195.027 C 161.645 193.337,161.524 192.179,161.073 193.353 M238.650 194.400 C 238.975 196.641,239.202 196.960,239.194 195.167 C 239.191 194.415,239.008 193.530,238.788 193.200 C 238.509 192.781,238.467 193.142,238.650 194.400 M160.806 204.833 C 160.809 205.585,160.992 206.470,161.212 206.800 C 161.491 207.219,161.533 206.858,161.350 205.600 C 161.025 203.359,160.798 203.040,160.806 204.833 M238.859 204.400 C 238.820 204.950,238.689 205.850,238.567 206.400 C 238.376 207.262,238.408 207.302,238.797 206.691 C 239.046 206.302,239.177 205.402,239.089 204.691 C 238.964 203.687,238.913 203.622,238.859 204.400 M232.631 221.486 C 231.815 222.743,231.484 223.467,231.895 223.095 C 232.631 222.429,234.611 219.200,234.283 219.200 C 234.190 219.200,233.447 220.229,232.631 221.486 M166.400 220.648 C 166.400 220.858,166.944 221.653,167.610 222.415 L 168.819 223.800 167.787 222.210 C 166.564 220.329,166.400 220.144,166.400 220.648 M228.024 227.322 C 225.422 230.189,225.338 230.324,227.355 228.400 C 229.325 226.522,231.540 223.951,231.127 224.022 C 231.057 224.034,229.661 225.519,228.024 227.322 M172.400 228.200 C 173.595 229.410,174.663 230.400,174.773 230.400 C 174.883 230.400,173.995 229.410,172.800 228.200 C 171.605 226.990,170.537 226.000,170.427 226.000 C 170.317 226.000,171.205 226.990,172.400 228.200 M175.205 230.673 C 175.208 230.853,175.857 231.419,176.648 231.932 C 177.440 232.445,177.972 232.678,177.831 232.451 C 177.441 231.818,175.199 230.301,175.205 230.673 M223.175 231.632 L 221.800 232.848 223.200 231.925 C 223.970 231.418,224.675 230.957,224.767 230.901 C 224.858 230.846,224.847 230.714,224.742 230.608 C 224.636 230.503,223.931 230.964,223.175 231.632 M179.200 233.567 C 180.163 234.352,180.800 234.608,180.800 234.210 C 180.800 234.106,180.215 233.735,179.500 233.386 L 178.200 232.752 179.200 233.567 M220.300 233.429 C 219.695 233.757,219.200 234.110,219.200 234.213 C 219.200 234.599,219.832 234.357,220.800 233.600 C 221.989 232.670,221.811 232.609,220.300 233.429 M193.000 238.780 C 193.761 239.126,196.717 239.364,196.367 239.051 C 196.275 238.969,195.300 238.793,194.200 238.659 C 192.854 238.495,192.461 238.535,193.000 238.780 M204.800 238.800 L 203.400 239.095 204.800 239.119 C 205.570 239.133,206.560 238.989,207.000 238.800 L 207.800 238.456 207.000 238.481 C 206.560 238.494,205.570 238.638,204.800 238.800 M186.428 349.500 C 186.444 349.885,186.626 350.560,186.834 351.000 C 187.147 351.662,187.175 351.610,186.999 350.700 C 186.658 348.946,187.081 349.270,193.400 355.600 C 196.694 358.900,199.664 361.600,200.000 361.600 C 200.336 361.600,203.306 358.900,206.600 355.600 C 212.927 349.263,213.333 348.952,213.015 350.700 C 212.852 351.596,212.899 351.558,213.267 350.493 C 214.136 347.983,213.127 348.682,206.881 354.919 C 203.421 358.374,200.321 361.200,199.991 361.200 C 199.660 361.200,196.605 358.410,193.200 355.000 C 186.898 348.688,186.379 348.266,186.428 349.500 M199.200 384.086 C 199.200 384.259,199.560 384.400,200.000 384.400 C 200.440 384.400,200.800 384.259,200.800 384.086 C 200.800 383.913,200.440 383.771,200.000 383.771 C 199.560 383.771,199.200 383.913,199.200 384.086 M200.400 398.043 C 200.400 398.286,200.130 398.382,199.800 398.255 C 199.470 398.129,199.200 398.199,199.200 398.413 C 199.200 398.626,199.560 398.800,200.000 398.800 C 200.444 398.800,200.800 398.533,200.800 398.200 C 200.800 397.870,200.710 397.600,200.600 397.600 C 200.490 397.600,200.400 397.799,200.400 398.043 " stroke="none" fill="#787694" fill-rule="evenodd"></path></g></svg>